
<?xml version="1.0" encoding="UTF-8"?>
<!DOCTYPE svg PUBLIC "-//W3C//DTD SVG 1.1//EN" "http://www.w3.org/Graphics/SVG/1.1/DTD/svg11.dtd">
<svg xmlns="http://www.w3.org/2000/svg" version="1.1" width="804px" height="800px" style="shape-rendering:geometricPrecision; text-rendering:geometricPrecision; image-rendering:optimizeQuality; fill-rule:evenodd; clip-rule:evenodd" xmlns:xlink="http://www.w3.org/1999/xlink">
<g><path style="opacity:1" fill="#18a491" d="M 166.5,-0.5 C 323.5,-0.5 480.5,-0.5 637.5,-0.5C 638.568,0.434475 639.901,0.767809 641.5,0.5C 481.167,1.83333 320.833,1.83333 160.5,0.5C 162.735,0.794717 164.735,0.461384 166.5,-0.5 Z"/></g>
<g><path style="opacity:1" fill="#13ab99" d="M 160.5,0.5 C 320.833,1.83333 481.167,1.83333 641.5,0.5C 709.409,6.00802 758.575,39.008 789,99.5C 796.687,118.25 801.521,137.583 803.5,157.5C 803.5,319.167 803.5,480.833 803.5,642.5C 795.995,711.281 760.328,759.447 696.5,787C 677.57,793.684 658.236,797.851 638.5,799.5C 481.167,799.5 323.833,799.5 166.5,799.5C 84.8925,793.381 31.2259,751.548 5.5,674C 5.83333,673.667 6.16667,673.333 6.5,673C 3.1325,661.607 0.799167,650.107 -0.5,638.5C -0.5,478.833 -0.5,319.167 -0.5,159.5C 5.94307,93.169 39.2764,45.3356 99.5,16C 119.079,7.8553 139.412,2.68863 160.5,0.5 Z"/></g>
<g><path style="opacity:1" fill="#009880" d="M 623.5,125.5 C 620.5,125.5 617.5,125.5 614.5,125.5C 471.001,124.667 327.334,124.167 183.5,124C 329.167,123.333 474.833,123.333 620.5,124C 622.506,124.083 623.506,124.583 623.5,125.5 Z"/></g>
<g><path style="opacity:1" fill="#fefefe" d="M 614.5,125.5 C 617.5,125.5 620.5,125.5 623.5,125.5C 650.795,132.3 666.962,149.633 672,177.5C 672.495,322.814 672.662,467.981 672.5,613C 666.011,644.823 646.677,662.823 614.5,667C 472.5,667.667 330.5,667.667 188.5,667C 162.95,665.101 144.784,652.601 134,629.5C 132.295,624.094 130.795,618.761 129.5,613.5C 129.173,465.479 129.506,317.479 130.5,169.5C 137.419,146.211 152.752,131.711 176.5,126C 322.5,125.5 468.5,125.333 614.5,125.5 Z"/></g>
<g><path style="opacity:1" fill="#12ab98" d="M 191.5,172.5 C 191.369,173.239 191.536,173.906 192,174.5C 331.598,173.834 471.098,173.167 610.5,172.5C 617.285,174.116 622.118,178.116 625,184.5C 625.667,326.167 625.667,467.833 625,609.5C 623.389,613.275 620.889,616.275 617.5,618.5C 473.804,619.832 329.804,619.832 185.5,618.5C 180.701,616.362 177.701,612.695 176.5,607.5C 177.333,467.334 177.833,327.001 178,186.5C 179.518,182.151 182.018,178.484 185.5,175.5C 187.25,174.13 189.25,173.13 191.5,172.5 Z"/></g>
<g><path style="opacity:1" fill="#00947c" d="M 191.5,172.5 C 331.167,172.5 470.833,172.5 610.5,172.5C 471.098,173.167 331.598,173.834 192,174.5C 191.536,173.906 191.369,173.239 191.5,172.5 Z"/></g>
<g><path style="opacity:1" fill="#fefffe" d="M 241.5,232.5 C 291.501,232.333 341.501,232.5 391.5,233C 404.526,237.019 410.026,245.853 408,259.5C 406.172,266.987 401.672,272.154 394.5,275C 343.167,275.667 291.833,275.667 240.5,275C 229.899,272.173 224.566,265.173 224.5,254C 225.218,242.794 230.885,235.628 241.5,232.5 Z"/></g>
<g><path style="opacity:1" fill="#06a38e" d="M 130.5,169.5 C 129.506,317.479 129.173,465.479 129.5,613.5C 128.583,613.506 128.083,612.506 128,610.5C 127.333,465.5 127.333,320.5 128,175.5C 128.593,172.684 129.427,170.684 130.5,169.5 Z"/></g>
<g><path style="opacity:1" fill="#fefffe" d="M 240.5,326.5 C 290.168,326.333 339.834,326.5 389.5,327C 400.507,329.85 406.173,337.016 406.5,348.5C 405.813,359.014 400.479,365.848 390.5,369C 340.5,369.667 290.5,369.667 240.5,369C 230.119,365.763 224.786,358.597 224.5,347.5C 225.372,336.977 230.705,329.977 240.5,326.5 Z"/></g>
<g><path style="opacity:1" fill="#fefefe" d="M 445.5,346.5 C 518.291,356.48 570.124,394.814 601,461.5C 612.166,487.026 618.333,513.526 619.5,541C 619.153,556.18 611.487,565.014 596.5,567.5C 583.453,566.284 575.62,559.284 573,546.5C 570.444,488.856 545.277,444.356 497.5,413C 479.349,402.926 460.016,396.259 439.5,393C 424.29,384.343 420.79,372.176 429,356.5C 433.427,351.211 438.927,347.878 445.5,346.5 Z"/></g>
<g><path style="opacity:1" fill="#fefffe" d="M 239.5,421.5 C 278.168,421.333 316.835,421.5 355.5,422C 365.789,425.389 371.123,432.556 371.5,443.5C 370.335,453.696 365.001,460.53 355.5,464C 317.167,464.667 278.833,464.667 240.5,464C 228.041,459.597 222.874,450.764 225,437.5C 226.947,429.393 231.78,424.06 239.5,421.5 Z"/></g>
<g><path style="opacity:1" fill="#008f77" d="M 185.5,175.5 C 182.018,178.484 179.518,182.151 178,186.5C 177.833,327.001 177.333,467.334 176.5,607.5C 176.333,466.5 176.5,325.5 177,184.5C 178.681,180.321 181.515,177.321 185.5,175.5 Z"/></g>
<g><path style="opacity:1" fill="#fefefe" d="M 438.5,432.5 C 452.826,432.774 466.159,436.607 478.5,444C 516.106,468.884 535.606,503.718 537,548.5C 533.566,559.933 525.899,566.266 514,567.5C 503.274,566.767 495.941,561.434 492,551.5C 489.523,530.893 481.856,512.559 469,496.5C 459.225,486.675 447.392,480.842 433.5,479C 421.118,471.869 416.952,461.369 421,447.5C 424.412,439.562 430.245,434.562 438.5,432.5 Z"/></g>
<g><path style="opacity:1" fill="#fefffe" d="M 360.5,553.5 C 358.363,554.787 356.03,555.621 353.5,556C 315.835,556.5 278.168,556.667 240.5,556.5C 224.552,549.095 220.719,537.428 229,521.5C 232.453,517.855 236.62,515.355 241.5,514C 278.833,513.333 316.167,513.333 353.5,514C 365.796,517.985 371.296,526.485 370,539.5C 368.552,545.416 365.385,550.082 360.5,553.5 Z"/></g>
<g><path style="opacity:1" fill="#fefffe" d="M 423.5,517.5 C 447.218,521.265 455.384,534.598 448,557.5C 437.127,571.735 423.96,574.235 408.5,565C 396.704,553.161 395.537,540.328 405,526.5C 410.276,521.444 416.442,518.444 423.5,517.5 Z"/></g>
<g><path style="opacity:1" fill="#019a85" d="M 360.5,553.5 C 359.64,555.614 357.973,556.78 355.5,557C 316.998,557.831 278.664,557.664 240.5,556.5C 278.168,556.667 315.835,556.5 353.5,556C 356.03,555.621 358.363,554.787 360.5,553.5 Z"/></g>
<g><path style="opacity:1" fill="#14a591" d="M 617.5,618.5 C 615.641,619.594 613.641,620.427 611.5,621C 471.167,621.667 330.833,621.667 190.5,621C 188.509,620.626 186.842,619.793 185.5,618.5C 329.804,619.832 473.804,619.832 617.5,618.5 Z"/></g>
</svg>
