<?xml version="1.0" encoding="UTF-8" standalone="no"?>
<!-- Uploaded to: SVG Repo, www.svgrepo.com, Generator: SVG Repo Mixer Tools -->

<svg
   height="1000"
   width="1000"
   version="1.1"
   id="Layer_1"
   viewBox="0 0 640.005 640.005"
   xml:space="preserve"
   sodipodi:docname="newspaper.svg"
   inkscape:export-filename="newspaper.png"
   inkscape:export-xdpi="30.719999"
   inkscape:export-ydpi="30.719999"
   inkscape:version="1.4 (e7c3feb1, 2024-10-09)"
   xmlns:inkscape="http://www.inkscape.org/namespaces/inkscape"
   xmlns:sodipodi="http://sodipodi.sourceforge.net/DTD/sodipodi-0.dtd"
   xmlns="http://www.w3.org/2000/svg"
   xmlns:svg="http://www.w3.org/2000/svg"><defs
   id="defs23" /><sodipodi:namedview
   id="namedview23"
   pagecolor="#ffffff"
   bordercolor="#000000"
   borderopacity="0.25"
   inkscape:showpageshadow="2"
   inkscape:pageopacity="0.0"
   inkscape:pagecheckerboard="0"
   inkscape:deskcolor="#d1d1d1"
   inkscape:zoom="0.52"
   inkscape:cx="400"
   inkscape:cy="549.03846"
   inkscape:window-width="1512"
   inkscape:window-height="916"
   inkscape:window-x="0"
   inkscape:window-y="38"
   inkscape:window-maximized="1"
   inkscape:current-layer="Layer_1" />
<path
   style="fill:#e2e7f0"
   d="m 518.15214,52.92349 h -367.994 c -8.84,0 -16,7.16 -16,16 v 455.993 c 0,22.088 -17.912,39.999 -39.998996,39.999 H 494.15314 c 22.088,0 39.999,-17.912 39.999,-39.999 v -455.993 c 0,-8.84 -7.168,-16 -16,-16 z"
   id="path1" />
<path
   style="fill:#c9d5e3"
   d="m 70.159144,196.92149 c -8.84,0 -16,7.16 -16,16 v 311.995 c 0,22.088 17.912,39.999 39.999,39.999 22.086996,0 39.998996,-17.912 39.998996,-39.999 v -327.995 z"
   id="path2" />
<path
   style="fill:#f6b545"
   d="m 174.15814,228.92049 h 135.998 c 4.416,0 8,3.584 8,8 v 95.999 c 0,4.416 -3.584,8 -8,8 h -135.998 c -4.416,0 -8,-3.584 -8,-8 v -95.999 c 0,-4.416 3.576,-8 8,-8 z"
   id="path3" />
<g
   id="g5"
   transform="translate(38.154144,52.92349)">
	<path
   style="fill:#4c9cd6"
   d="m 136.004,327.995 h 55.999 c 4.416,0 8,3.584 8,8 v 95.999 c 0,4.416 -3.584,8 -8,8 h -55.999 c -4.416,0 -8,-3.584 -8,-8 v -95.999 c 0,-4.416 3.576,-8 8,-8 z"
   id="path4" />
	<path
   style="fill:#4c9cd6"
   d="m 400,327.995 h 55.999 c 4.416,0 8,3.584 8,8 v 95.999 c 0,4.416 -3.584,8 -8,8 H 400 c -4.416,0 -8,-3.584 -8,-8 v -95.999 c 0,-4.416 3.576,-8 8,-8 z"
   id="path5" />
</g>
<path
   style="fill:#123247"
   d="m 414.15414,244.92049 h -63.999 c -4.416,0 -8,-3.584 -8,-8 0,-4.416 3.584,-8 8,-8 h 63.999 c 4.416,0 8,3.584 8,8 0,4.416 -3.584,8 -8,8 z"
   id="path6" />
<path
   style="fill:#576d7e"
   d="m 494.15314,276.92049 h -143.998 c -4.416,0 -8,-3.584 -8,-8 0,-4.416 3.584,-8 8,-8 h 143.998 c 4.416,0 8,3.584 8,8 0,4.416 -3.584,8 -8,8 z"
   id="path7" />
<path
   style="fill:#c9d5e3"
   d="m 494.15314,180.92149 h -319.995 c -4.416,0 -8,-3.584 -8,-8 0,-4.416 3.584,-8 8,-8 h 319.995 c 4.416,0 8,3.584 8,8 0,4.416 -3.584,8 -8,8 z"
   id="path8" />
<g
   id="g10"
   transform="translate(38.154144,52.92349)">
	<path
   style="fill:#576d7e"
   d="M 455.999,255.996 H 312.001 c -4.416,0 -8,-3.584 -8,-8 0,-4.416 3.584,-8 8,-8 h 143.998 c 4.416,0 8,3.584 8,8 0,4.416 -3.584,8 -8,8 z"
   id="path9" />
	<path
   style="fill:#576d7e"
   d="M 455.999,287.996 H 312.001 c -4.416,0 -8,-3.584 -8,-8 0,-4.416 3.584,-8 8,-8 h 143.998 c 4.416,0 8,3.584 8,8 0,4.416 -3.584,8 -8,8 z"
   id="path10" />
</g>
<path
   style="fill:#123247"
   d="m 326.15514,396.91849 h -55.999 c -4.416,0 -8,-3.584 -8,-8 0,-4.416 3.584,-8 8,-8 h 55.999 c 4.416,0 8,3.584 8,8 0,4.416 -3.584,8 -8,8 z"
   id="path11" />
<g
   id="g14"
   transform="translate(38.154144,52.92349)">
	<path
   style="fill:#576d7e"
   d="M 360,375.994 H 232.002 c -4.416,0 -8,-3.584 -8,-8 0,-4.416 3.584,-8 8,-8 H 360 c 4.416,0 8,3.584 8,8 0,4.416 -3.584,8 -8,8 z"
   id="path12" />
	<path
   style="fill:#576d7e"
   d="M 360,407.994 H 232.002 c -4.416,0 -8,-3.584 -8,-8 0,-4.416 3.584,-8 8,-8 H 360 c 4.416,0 8,3.584 8,8 0,4.416 -3.584,8 -8,8 z"
   id="path13" />
	<path
   style="fill:#576d7e"
   d="M 360,439.993 H 232.002 c -4.416,0 -8,-3.584 -8,-8 0,-4.416 3.584,-8 8,-8 H 360 c 4.416,0 8,3.584 8,8 0,4.416 -3.584,8 -8,8 z"
   id="path14" />
</g>
<path
   style="fill:#c9d5e3"
   d="m 518.15214,84.92349 v 439.993 c 0,13.256 -10.744,24 -24,24 h -313.354 c -25.336,0.648 -50.407,5.376 -74.239,14 -4,1.328 -8.191996,2 -12.399996,2 H 494.15314 c 22.088,0 39.999,-17.912 39.999,-39.999 v -455.994 0 c -8.84,0 -16,7.16 -16,16 z"
   id="path15" />
<path
   style="fill:#f19920"
   d="m 254.15614,308.91949 c -27.36,6 -47.359,-30.64 -63.999,-39.999 -7.632,-3.44 -16.368,-3.44 -24,0 v 63.999 c 0,4.416 3.584,8 8,8 h 135.998 c 4.416,0 8,-3.584 8,-8 v -56.959 c -19.519,0.96 -39.999,27.679 -63.999,32.959 z"
   id="path16" />
<g
   id="g18"
   transform="translate(38.154144,52.92349)">
	<circle
   style="fill:#3689c9"
   cx="164.00301"
   cy="371.99399"
   r="20"
   id="circle16" />
	<circle
   style="fill:#3689c9"
   cx="427.991"
   cy="371.99399"
   r="20"
   id="circle17" />
	<path
   style="fill:#3689c9"
   d="m 427.999,397.354 c -12.72,-0.232 -25.224,3.24 -35.999,10 v 24.64 c 0,4.416 3.584,8 8,8 h 55.999 c 4.416,0 8,-3.584 8,-8 v -24.64 c -10.776,-6.76 -23.288,-10.232 -36,-10 z"
   id="path17" />
	<path
   style="fill:#3689c9"
   d="m 164.003,397.354 c -12.72,-0.232 -25.224,3.24 -35.999,10 v 24.64 c 0,4.416 3.584,8 8,8 h 55.999 c 4.416,0 8,-3.584 8,-8 v -24.64 c -10.776,-6.76 -23.288,-10.232 -36,-10 z"
   id="path18" />
</g>
<g
   id="g22"
   transform="translate(38.154144,52.92349)">
	<path
   style="fill:#576d7e"
   d="m 184.003,39.999 c -0.576,-2.496 0.976,-4.992 3.472,-5.568 0.432,-0.104 0.88,-0.136 1.328,-0.112 2.248,-0.104 4.392,0.952 5.68,2.8 l 26.56,33.199 v -30.96 c 0.024,-2.856 2.2,-5.232 5.04,-5.52 3,0.184 5.408,2.528 5.68,5.52 v 45.119 c 0.136,2.632 -1.664,4.976 -4.24,5.52 -2.48,0.12 -4.872,-0.912 -6.48,-2.8 l -26.56,-33.679 v 30.96 c 0.312,2.72 -1.648,5.176 -4.368,5.488 -0.224,0.024 -0.448,0.032 -0.672,0.032 -2.912,0.088 -5.352,-2.2 -5.44,-5.112 -0.008,-0.136 0,-0.272 0,-0.408 z"
   id="path19" />
	<path
   style="fill:#576d7e"
   d="m 250.242,89.999 c -2.696,0.048 -4.912,-2.104 -4.96,-4.8 0,-0.056 0,-0.104 0,-0.16 v -45.52 c -0.048,-2.696 2.104,-4.912 4.8,-4.96 0.056,0 0.104,0 0.16,0 h 28.8 c 2.872,0 5.2,2.328 5.2,5.2 0,2.872 -2.328,5.2 -5.2,5.2 0,0 0,0 -0.008,0 h -23.04 v 12 h 20.24 c 2.896,-0.36 5.528,1.696 5.888,4.592 0.36,2.896 -1.696,5.528 -4.592,5.888 -0.432,0.056 -0.864,0.056 -1.296,0 h -20.24 v 12 h 24 c 2.896,-0.36 5.528,1.696 5.888,4.592 0.36,2.896 -1.696,5.528 -4.592,5.888 -0.432,0.056 -0.864,0.056 -1.296,0 h -29.76 v 0.08 z"
   id="path20" />
	<path
   style="fill:#576d7e"
   d="M 352,70.879 363.92,37.84 c 0.6,-2.808 3.36,-4.6 6.168,-4 2.808,0.6 4.6,3.36 4,6.168 -0.096,0.472 -0.264,0.928 -0.488,1.352 l -16,43.039 c -1.44,4.56 -2.8,5.92 -5.52,5.92 -2.6,-0.24 -4.752,-2.104 -5.36,-4.64 l -13.92,-32 -12.8,31.52 c -0.488,2.84 -2.816,5 -5.68,5.28 -2.88,-0.312 -5.168,-2.568 -5.52,-5.44 L 293.04,41.36 c -0.976,-2.72 0.44,-5.704 3.16,-6.68 2.72,-0.976 5.704,0.44 6.68,3.16 l 11.84,33.039 14.16,-33.039 c 0.576,-2.496 3.072,-4.048 5.568,-3.472 1.728,0.4 3.072,1.744 3.472,3.472 z"
   id="path21" />
	<path
   style="fill:#576d7e"
   d="m 381.68,46.559 c 1.84,-15.52 25.36,-18.32 36.399,-9.84 2.208,1.416 2.856,4.352 1.44,6.56 -1.416,2.208 -4.352,2.856 -6.56,1.44 v 0 c -5.92,-3.76 -19.36,-5.52 -21.04,2.8 -2.16,13.12 32.719,5.6 32,26.96 -0.72,21.36 -30.08,20.88 -41.119,11.68 -2.416,-1.96 -2.904,-5.456 -1.12,-8 1.544,-2.096 4.496,-2.552 6.6,-1.008 0.184,0.136 0.352,0.288 0.52,0.448 6.56,4.48 23.52,8 24.72,-3.52 -0.961,-11.84 -34.32,-4.72 -31.84,-27.52 z"
   id="path22" />
</g>
<path
   style="fill:#b0c4d9"
   d="m 134.15814,212.92049 c -8.84,0 -16,7.16 -16,16 v 255.996 c 0,26.512 -21.487996,47.999 -47.998996,47.999 v 0 c -5.52,0 -10,4.48 -10,10 0,2.16 0.704,4.272 2,6 13.248,17.68 38.318996,21.264 55.998996,8.016 7.84,-5.872 13.248,-14.416 15.2,-24.016 v 0 c 0.632,-3.16 0.896,-6.384 0.8,-9.6 z"
   id="path23" />
</svg>
